<svg xmlns="http://www.w3.org/2000/svg" width="27.76" height="29.949" viewBox="0 0 27.76 29.949">
  <g id="Groupe_1" data-name="Groupe 1" transform="translate(-173.62 -531)">
    <path id="Shape" d="M13.373,28.233H5.561a3.85,3.85,0,0,1-3.845-3.845V5.561A3.85,3.85,0,0,1,5.561,1.716H13.5A.858.858,0,1,0,13.5,0H5.561A5.568,5.568,0,0,0,0,5.561V24.388a5.568,5.568,0,0,0,5.561,5.561h7.811a.858.858,0,1,0,0-1.716Z" transform="translate(173.62 531)" fill="#fff"/>
    <path id="Shape-2" data-name="Shape" d="M20.943,5.706,15.489.253a.858.858,0,0,0-1.214,1.214l3.992,3.992H.858a.858.858,0,0,0,0,1.716H18.267l-3.992,3.992a.861.861,0,0,0,.6,1.468.837.837,0,0,0,.6-.254l5.453-5.453A.857.857,0,0,0,20.943,5.706Z" transform="translate(180.186 539.665)" fill="#fff"/>
  </g>
</svg>
